<mxGraphModel dx="1116" dy="579" grid="1" gridSize="8" guides="1" tooltips="1" connect="1" arrows="1" fold="1" page="1" pageScale="1" pageWidth="1169" pageHeight="827" background="#ffffff"><root><MiscDiagram modelType="MiscDiagram" lastModifiedUserId="dbush@ibm.com" description="" lastModified="2022-01-26T00:15:02Z" _id="miscdiagram_H14C6FRXt" label="DR 3+ AZ with Containerized DB" id="0"><mxCell/></MiscDiagram><mxCell id="1" parent="0"/><mxCell id="miscdiagram_H14C6FRXt_23dyRjG0S1R6" value="Enterprise Load Balancers" style="aspect=fixed;perimeter=ellipsePerimeter;html=1;align=center;shadow=0;dashed=0;fontColor=#4277BB;labelBackgroundColor=#ffffff;fontSize=12;spacingTop=3;image;image=data:image/svg+xml,PHN2ZyB4bWxucz0iaHR0cDovL3d3dy53My5vcmcvMjAwMC9zdmciIHdpZHRoPSIxMDAuMDMyIiBoZWlnaHQ9IjEwMC4wMzIiIHZpZXdCb3g9IjAgMCA3NSA3NSIgZmlsbD0ibm9uZSIgZmlsbC1ydWxlPSJldmVub2RkIiBvdmVyZmxvdz0idmlzaWJsZSIgc3Ryb2tlLWxpbmVjYXA9InNxdWFyZSIgc3Ryb2tlLW1pdGVybGltaXQ9IjMiIGNvbG9yLWludGVycG9sYXRpb24tZmlsdGVycz0ic1JHQiI+PHN0eWxlPjwhW0NEQVRBWy5Ce2NvbG9yLWludGVycG9sYXRpb24tZmlsdGVyczpzUkdCfV1dPjwvc3R5bGU+PGNpcmNsZSByPSIzNy41IiBjeD0iMzcuNSIgY3k9IjM3LjUiIGZpbGw9IiM4ZGM1M2YiIGNsYXNzPSJCIi8+PHBhdGggZD0iTTUzLjE4NiA1My41NjJoOS4xMDd2Ny41MTZoLTkuMTA3em0tMjAuMjQgMGg5LjEwN3Y3LjUxNmgtOS4xMDd6bS0yMC4yNCAwaDkuMTA3djcuNTE2aC05LjEwN3pNMjcuNDYyIDcuMDRoMjAuMDc2djguODdIMjcuNDYyem04LjE2MiAxMS40ODN2Ny40OWgtMjAuMDhWNDkuMDNoMy43NVYyOS43NjNoMTYuMzN2MTkuMjUyaDMuNzVWMjkuNzYzaDE2LjMzVjQ5LjA0aDMuNzVWMjYuMDEzaC0yMC4wOHYtNy40OXoiIGZpbGw9IiNmZmYiIHBhaW50LW9yZGVyPSJub3JtYWwiIGNsYXNzPSJCIi8+PC9zdmc+;verticalAlign=top;" vertex="1" parent="1"><mxGeometry x="535" y="16" width="60" height="60" as="geometry"/></mxCell><UserObject placeholders="1" label="AZ 1" Icon-Name="data--center" id="miscdiagram_H14C6FRXt_33dyRjG0GWJh"><mxCell style="shape=mxgraph.ibm2mondrian.base;shapeType=pg;shapeLayout=expanded;colorFamily=blue;colorBackground=noColor:noColor;html=1;whiteSpace=wrap;metaEdit=1;strokeWidth=1;collapsible=0;recursiveResize=0;expand=0;fontFamily=IBM Plex Sans;fontColor=#000000;fontSize=14;image=;verticalAlign=middle;align=left;spacing=0;spacingLeft=12;spacingRight=16;spacingTop=0;spacingBottom=0;container=1" vertex="1" parent="1"><mxGeometry x="12" y="136" width="380" height="654" as="geometry"/></mxCell></UserObject><UserObject placeholders="1" label="OpenShift Cluster" Icon-Name="logo--openshift" id="miscdiagram_H14C6FRXt_43dyRjG0Y9cU"><mxCell style="shape=mxgraph.ibm2mondrian.base;shapeType=pg;shapeLayout=expanded;colorFamily=blue;colorBackground=noColor:noColor;html=1;whiteSpace=wrap;metaEdit=1;strokeWidth=1;collapsible=0;recursiveResize=0;expand=0;fontFamily=IBM Plex Sans;fontColor=#000000;fontSize=14;image=;verticalAlign=middle;align=left;spacing=0;spacingLeft=12;spacingRight=16;spacingTop=0;spacingBottom=0;container=1" vertex="1" parent="miscdiagram_H14C6FRXt_33dyRjG0GWJh"><mxGeometry x="10" y="88" width="1110" height="520" as="geometry"/></mxCell></UserObject><mxCell id="miscdiagram_H14C6FRXt_53dyRjG0RuXf" value="Persistent Volume" style="shape=cylinder;whiteSpace=wrap;html=1;boundedLbl=1;backgroundOutline=1;" vertex="1" parent="miscdiagram_H14C6FRXt_33dyRjG0GWJh"><mxGeometry x="256" y="552" width="70" height="90" as="geometry"/></mxCell><mxCell id="miscdiagram_H14C6FRXt_63dyRjG0WDxe" value="" style="group" vertex="1" connectable="0" parent="miscdiagram_H14C6FRXt_33dyRjG0GWJh"><mxGeometry x="16" y="175" width="338" height="230" as="geometry"/></mxCell><UserObject placeholders="1" label="Worker Node" Icon-Name="cloud" _id="userobject_31WyEjwNlAQ" id="miscdiagram_H14C6FRXt_73dyRjG08kDP"><mxCell style="shape=mxgraph.ibm2mondrian.base;shapeType=lg;shapeLayout=expanded;colorFamily=blue;colorBackground=noColor:noColor;html=1;whiteSpace=wrap;metaEdit=1;strokeWidth=1;collapsible=0;recursiveResize=0;expand=0;fontFamily=IBM Plex Sans;fontColor=#000000;fontSize=14;image=;verticalAlign=middle;align=left;spacing=0;spacingLeft=12;spacingRight=16;spacingTop=0;spacingBottom=0;container=1" vertex="1" parent="miscdiagram_H14C6FRXt_63dyRjG0WDxe"><mxGeometry width="338" height="230" as="geometry"/></mxCell></UserObject><UserObject placeholders="1" label="CP4BA" Icon-Name="cube" _id="userobject_31WyEjwGBlt" id="miscdiagram_H14C6FRXt_83dyRjG0r1J2"><mxCell style="shape=mxgraph.ibm2mondrian.base;shapeType=lg;shapeLayout=expanded;colorFamily=green;colorBackground=noColor:noColor;html=1;whiteSpace=wrap;metaEdit=1;strokeWidth=1;collapsible=0;recursiveResize=0;expand=0;fontFamily=IBM Plex Sans;fontColor=#000000;fontSize=14;image=;verticalAlign=middle;align=left;spacing=0;spacingLeft=12;spacingRight=16;spacingTop=0;spacingBottom=0;container=1" vertex="1" parent="miscdiagram_H14C6FRXt_73dyRjG08kDP"><mxGeometry x="168" y="34" width="144" height="68" as="geometry"/></mxCell></UserObject><UserObject placeholders="1" label="DB" Icon-Name="cube" _id="userobject_31WyEjwEd7i" id="miscdiagram_H14C6FRXt_93dyRjG0HJqW"><mxCell style="shape=mxgraph.ibm2mondrian.base;shapeType=lg;shapeLayout=expanded;colorFamily=green;colorBackground=noColor:noColor;html=1;whiteSpace=wrap;metaEdit=1;strokeWidth=1;collapsible=0;recursiveResize=0;expand=0;fontFamily=IBM Plex Sans;fontColor=#000000;fontSize=14;image=;verticalAlign=middle;align=left;spacing=0;spacingLeft=12;spacingRight=16;spacingTop=0;spacingBottom=0;container=1" vertex="1" parent="miscdiagram_H14C6FRXt_73dyRjG08kDP"><mxGeometry x="164" y="130" width="144" height="68" as="geometry"/></mxCell></UserObject><UserObject placeholders="1" label="AZ 2" Icon-Name="data--center" _id="userobject_31WB8sHgf1F" id="miscdiagram_H14C6FRXt_103dyRjG0Yb36"><mxCell style="shape=mxgraph.ibm2mondrian.base;shapeType=pg;shapeLayout=expanded;colorFamily=blue;colorBackground=noColor:noColor;html=1;whiteSpace=wrap;metaEdit=1;strokeWidth=1;collapsible=0;recursiveResize=0;expand=0;fontFamily=IBM Plex Sans;fontColor=#000000;fontSize=14;image=;verticalAlign=middle;align=left;spacing=0;spacingLeft=12;spacingRight=16;spacingTop=0;spacingBottom=0;container=1" vertex="1" parent="1"><mxGeometry x="408" y="136" width="360" height="654" as="geometry"/></mxCell></UserObject><UserObject placeholders="1" label="Router" Icon-Name="router" _id="userobject_329e3EynfDC" id="miscdiagram_H14C6FRXt_113dyRjG0SpYt"><mxCell style="shape=mxgraph.ibm2mondrian.base;shapeType=ln;shapeLayout=collapsed;colorFamily=blue;colorBackground=noColor:noColor;html=1;whiteSpace=wrap;metaEdit=1;strokeWidth=1;collapsible=0;recursiveResize=0;expand=0;fontFamily=IBM Plex Sans;fontColor=#000000;fontSize=14;image=;verticalAlign=top;align=center;spacing=0;spacingLeft=0;spacingRight=0;spacingTop=0;spacingBottom=0;verticalLabelPosition=bottom;labelPosition=center;positionText=bottom;container=1" vertex="1" parent="miscdiagram_H14C6FRXt_103dyRjG0Yb36"><mxGeometry x="134" y="-24" width="48" height="48" as="geometry"/></mxCell></UserObject><mxCell id="miscdiagram_H14C6FRXt_123dyRjG0BYAh" value="" style="group" vertex="1" connectable="0" parent="miscdiagram_H14C6FRXt_103dyRjG0Yb36"><mxGeometry x="7" y="175" width="338" height="230" as="geometry"/></mxCell><UserObject placeholders="1" label="Worker Node" Icon-Name="cloud" _id="userobject_329fUQHeHcb" id="miscdiagram_H14C6FRXt_133dyRjG0AmKf"><mxCell style="shape=mxgraph.ibm2mondrian.base;shapeType=lg;shapeLayout=expanded;colorFamily=blue;colorBackground=noColor:noColor;html=1;whiteSpace=wrap;metaEdit=1;strokeWidth=1;collapsible=0;recursiveResize=0;expand=0;fontFamily=IBM Plex Sans;fontColor=#000000;fontSize=14;image=;verticalAlign=middle;align=left;spacing=0;spacingLeft=12;spacingRight=16;spacingTop=0;spacingBottom=0;container=1" vertex="1" parent="miscdiagram_H14C6FRXt_123dyRjG0BYAh"><mxGeometry width="338" height="230" as="geometry"/></mxCell></UserObject><UserObject placeholders="1" label="CP4BA" Icon-Name="cube" _id="userobject_329fUQICMCB" id="miscdiagram_H14C6FRXt_143dyRjG0QdZs"><mxCell style="shape=mxgraph.ibm2mondrian.base;shapeType=lg;shapeLayout=expanded;colorFamily=green;colorBackground=noColor:noColor;html=1;whiteSpace=wrap;metaEdit=1;strokeWidth=1;collapsible=0;recursiveResize=0;expand=0;fontFamily=IBM Plex Sans;fontColor=#000000;fontSize=14;image=;verticalAlign=middle;align=left;spacing=0;spacingLeft=12;spacingRight=16;spacingTop=0;spacingBottom=0;container=1" vertex="1" parent="miscdiagram_H14C6FRXt_133dyRjG0AmKf"><mxGeometry x="168" y="34" width="144" height="68" as="geometry"/></mxCell></UserObject><UserObject placeholders="1" label="DB" Icon-Name="cube" _id="userobject_329fUQINEMz" id="miscdiagram_H14C6FRXt_153dyRjG0Zh5J"><mxCell style="shape=mxgraph.ibm2mondrian.base;shapeType=lg;shapeLayout=expanded;colorFamily=green;colorBackground=noColor:noColor;html=1;whiteSpace=wrap;metaEdit=1;strokeWidth=1;collapsible=0;recursiveResize=0;expand=0;fontFamily=IBM Plex Sans;fontColor=#000000;fontSize=14;image=;verticalAlign=middle;align=left;spacing=0;spacingLeft=12;spacingRight=16;spacingTop=0;spacingBottom=0;container=1" vertex="1" parent="miscdiagram_H14C6FRXt_133dyRjG0AmKf"><mxGeometry x="164" y="130" width="144" height="68" as="geometry"/></mxCell></UserObject><mxCell id="miscdiagram_H14C6FRXt_163dyRjG0dJIC" value="Persistent Volume" style="shape=cylinder;whiteSpace=wrap;html=1;boundedLbl=1;backgroundOutline=1;" vertex="1" parent="miscdiagram_H14C6FRXt_103dyRjG0Yb36"><mxGeometry x="264" y="552" width="70" height="90" as="geometry"/></mxCell><mxCell id="miscdiagram_H14C6FRXt_173dyRjG0Dd7I" value="" style="edgeStyle=segmentEdgeStyle;endArrow=classic;html=1;jumpStyle=arc;jumpSize=8;rounded=1;entryX=0.5;entryY=0.021;entryPerimeter=0;exitX=0;exitY=0.5;" edge="1" parent="1" source="miscdiagram_H14C6FRXt_23dyRjG0S1R6" target="miscdiagram_H14C6FRXt_263dyRjG0Btb1"><mxGeometry width="50" height="50" relative="1" as="geometry"><mxPoint x="304" y="82" as="sourcePoint"/><mxPoint x="354" y="32" as="targetPoint"/><Array as="points"><mxPoint x="197" y="46"/></Array></mxGeometry></mxCell><mxCell id="miscdiagram_H14C6FRXt_183dyRjG0IN3G" value="" style="edgeStyle=segmentEdgeStyle;endArrow=classic;html=1;jumpStyle=arc;jumpSize=8;rounded=1;entryX=0.5;entryY=0.021;entryPerimeter=0;exitX=1;exitY=0.5;" edge="1" parent="1" source="miscdiagram_H14C6FRXt_23dyRjG0S1R6" target="miscdiagram_H14C6FRXt_203dyRjG0wcUw"><mxGeometry width="50" height="50" relative="1" as="geometry"><mxPoint x="744" y="82" as="sourcePoint"/><mxPoint x="794" y="32" as="targetPoint"/><Array as="points"><mxPoint x="580" y="48"/><mxPoint x="932" y="48"/></Array></mxGeometry></mxCell><UserObject placeholders="1" label="AZ 2" Icon-Name="data--center" _id="userobject_329dYNk4KdL" id="miscdiagram_H14C6FRXt_193dyRjG0wzXq"><mxCell style="shape=mxgraph.ibm2mondrian.base;shapeType=pg;shapeLayout=expanded;colorFamily=blue;colorBackground=noColor:noColor;html=1;whiteSpace=wrap;metaEdit=1;strokeWidth=1;collapsible=0;recursiveResize=0;expand=0;fontFamily=IBM Plex Sans;fontColor=#000000;fontSize=14;image=;verticalAlign=middle;align=left;spacing=0;spacingLeft=12;spacingRight=16;spacingTop=0;spacingBottom=0;container=1" vertex="1" parent="1"><mxGeometry x="776" y="136" width="368" height="656" as="geometry"/></mxCell></UserObject><UserObject placeholders="1" label="Router" Icon-Name="router" id="miscdiagram_H14C6FRXt_203dyRjG0wcUw"><mxCell style="shape=mxgraph.ibm2mondrian.base;shapeType=ln;shapeLayout=collapsed;colorFamily=blue;colorBackground=noColor:noColor;html=1;whiteSpace=wrap;metaEdit=1;strokeWidth=1;collapsible=0;recursiveResize=0;expand=0;fontFamily=IBM Plex Sans;fontColor=#000000;fontSize=14;image=;verticalAlign=top;align=center;spacing=0;spacingLeft=0;spacingRight=0;spacingTop=0;spacingBottom=0;verticalLabelPosition=bottom;labelPosition=center;positionText=bottom;container=1" vertex="1" parent="miscdiagram_H14C6FRXt_193dyRjG0wzXq"><mxGeometry x="132" y="-26" width="48" height="48" as="geometry"/></mxCell></UserObject><mxCell id="miscdiagram_H14C6FRXt_213dyRjG03V1s" value="" style="group" vertex="1" connectable="0" parent="miscdiagram_H14C6FRXt_193dyRjG0wzXq"><mxGeometry x="6" y="175" width="338" height="230" as="geometry"/></mxCell><UserObject placeholders="1" label="Worker Node" Icon-Name="cloud" _id="userobject_329gd4KYJRd" id="miscdiagram_H14C6FRXt_223dyRjG0u7we"><mxCell style="shape=mxgraph.ibm2mondrian.base;shapeType=lg;shapeLayout=expanded;colorFamily=blue;colorBackground=noColor:noColor;html=1;whiteSpace=wrap;metaEdit=1;strokeWidth=1;collapsible=0;recursiveResize=0;expand=0;fontFamily=IBM Plex Sans;fontColor=#000000;fontSize=14;image=;verticalAlign=middle;align=left;spacing=0;spacingLeft=12;spacingRight=16;spacingTop=0;spacingBottom=0;container=1" vertex="1" parent="miscdiagram_H14C6FRXt_213dyRjG03V1s"><mxGeometry width="338" height="230" as="geometry"/></mxCell></UserObject><UserObject placeholders="1" label="CP4BA" Icon-Name="cube" _id="userobject_329gd4LxKlQ" id="miscdiagram_H14C6FRXt_233dyRjG0GEI7"><mxCell style="shape=mxgraph.ibm2mondrian.base;shapeType=lg;shapeLayout=expanded;colorFamily=green;colorBackground=noColor:noColor;html=1;whiteSpace=wrap;metaEdit=1;strokeWidth=1;collapsible=0;recursiveResize=0;expand=0;fontFamily=IBM Plex Sans;fontColor=#000000;fontSize=14;image=;verticalAlign=middle;align=left;spacing=0;spacingLeft=12;spacingRight=16;spacingTop=0;spacingBottom=0;container=1" vertex="1" parent="miscdiagram_H14C6FRXt_223dyRjG0u7we"><mxGeometry x="168" y="34" width="144" height="68" as="geometry"/></mxCell></UserObject><UserObject placeholders="1" label="DB" Icon-Name="cube" _id="userobject_329gd4L0XzB" id="miscdiagram_H14C6FRXt_243dyRjG0dgEN"><mxCell style="shape=mxgraph.ibm2mondrian.base;shapeType=lg;shapeLayout=expanded;colorFamily=green;colorBackground=noColor:noColor;html=1;whiteSpace=wrap;metaEdit=1;strokeWidth=1;collapsible=0;recursiveResize=0;expand=0;fontFamily=IBM Plex Sans;fontColor=#000000;fontSize=14;image=;verticalAlign=middle;align=left;spacing=0;spacingLeft=12;spacingRight=16;spacingTop=0;spacingBottom=0;container=1" vertex="1" parent="miscdiagram_H14C6FRXt_223dyRjG0u7we"><mxGeometry x="164" y="130" width="144" height="68" as="geometry"/></mxCell></UserObject><mxCell id="miscdiagram_H14C6FRXt_253dyRjG0xyRT" value="Persistent Volume" style="shape=cylinder;whiteSpace=wrap;html=1;boundedLbl=1;backgroundOutline=1;" vertex="1" parent="miscdiagram_H14C6FRXt_193dyRjG0wzXq"><mxGeometry x="272" y="552" width="70" height="90" as="geometry"/></mxCell><UserObject placeholders="1" label="Router" Icon-Name="router" id="miscdiagram_H14C6FRXt_263dyRjG0Btb1"><mxCell style="shape=mxgraph.ibm2mondrian.base;shapeType=ln;shapeLayout=collapsed;colorFamily=blue;colorBackground=noColor:noColor;html=1;whiteSpace=wrap;metaEdit=1;strokeWidth=1;collapsible=0;recursiveResize=0;expand=0;fontFamily=IBM Plex Sans;fontColor=#000000;fontSize=14;image=;verticalAlign=top;align=center;spacing=0;spacingLeft=0;spacingRight=0;spacingTop=0;spacingBottom=0;verticalLabelPosition=bottom;labelPosition=center;positionText=bottom;container=1" vertex="1" parent="1"><mxGeometry x="173" y="110" width="48" height="48" as="geometry"/></mxCell></UserObject><mxCell id="miscdiagram_H14C6FRXt_273dyRjG0yJUM" value="" style="shape=flexArrow;endArrow=classic;startArrow=classic;html=1;jumpStyle=arc;jumpSize=8;rounded=1;" edge="1" parent="1" source="miscdiagram_H14C6FRXt_93dyRjG0HJqW" target="miscdiagram_H14C6FRXt_153dyRjG0Zh5J"><mxGeometry width="50" height="50" relative="1" as="geometry"><mxPoint x="440" y="506" as="sourcePoint"/><mxPoint x="490" y="456" as="targetPoint"/></mxGeometry></mxCell><mxCell id="miscdiagram_H14C6FRXt_283dyRjG16JEM" value="Sync" style="text;html=1;resizable=0;points=[];align=center;verticalAlign=middle;labelBackgroundColor=#ffffff;fontSize=17;" vertex="1" connectable="0" parent="miscdiagram_H14C6FRXt_273dyRjG0yJUM"><mxGeometry x="0.3333" y="-2" relative="1" as="geometry"><mxPoint as="offset"/></mxGeometry></mxCell><mxCell id="miscdiagram_H14C6FRXt_293dyRjG1nFxT" value="" style="shape=flexArrow;endArrow=classic;startArrow=classic;html=1;jumpStyle=arc;jumpSize=8;rounded=1;fontSize=17;" edge="1" parent="1" source="miscdiagram_H14C6FRXt_153dyRjG0Zh5J" target="miscdiagram_H14C6FRXt_243dyRjG0dgEN"><mxGeometry width="50" height="50" relative="1" as="geometry"><mxPoint x="832" y="506" as="sourcePoint"/><mxPoint x="882" y="456" as="targetPoint"/></mxGeometry></mxCell><mxCell id="miscdiagram_H14C6FRXt_303dyRjG1q344" value="Sync" style="text;html=1;resizable=0;points=[];align=center;verticalAlign=middle;labelBackgroundColor=#ffffff;fontSize=17;" vertex="1" connectable="0" parent="miscdiagram_H14C6FRXt_293dyRjG1nFxT"><mxGeometry x="0.3722" y="-1" relative="1" as="geometry"><mxPoint as="offset"/></mxGeometry></mxCell><mxCell id="miscdiagram_H14C6FRXt_313dyRjG1wbRP" value="" style="endArrow=classic;html=1;jumpStyle=arc;jumpSize=8;rounded=1;fontSize=17;exitX=0.5;exitY=1;" edge="1" parent="1" source="miscdiagram_H14C6FRXt_23dyRjG0S1R6" target="miscdiagram_H14C6FRXt_113dyRjG0SpYt"><mxGeometry width="50" height="50" relative="1" as="geometry"><mxPoint x="672" y="122" as="sourcePoint"/><mxPoint x="722" y="72" as="targetPoint"/></mxGeometry></mxCell><mxCell id="miscdiagram_H14C6FRXt_323dyRjG1ziCS" value="&amp;lt; 10ms Latency between AZs" style="text;html=1;strokeColor=none;fillColor=none;align=center;verticalAlign=middle;whiteSpace=wrap;rounded=0;" vertex="1" parent="1"><mxGeometry x="8" y="16" width="176" height="40" as="geometry"/></mxCell></root></mxGraphModel>